# xmcd
#
# Track frame offsets:
#	150
#	16820
#	31298
#	45834
#	60446
#	79197
#	92579
#	108265
#	125824
#	143576
#	158415
#	176611
#	190595
#	208076
#	221211
#	237078
#	254649
#	270473
#	288082
#	302438
#	319068
#	334737
#
# Disc length: 4662 seconds
#
# Revision: 0
# Processed by: cddbd v1.5.2PL0 Copyright (c) Steve Scherf et al.
# Submitted via: dBpowerAMP V4.0
#
DISCID=24123416
DTITLE=Various Artist - ERG Nu Country Traxx Vol. 216 CAN
DYEAR=2012
DGENRE=Country
TTITLE0=Lee Brice - Hard To Love
TTITLE1=Blake Shelton - Over
TTITLE2=Gord Bamford - Leaning On A Lonesome Song
TTITLE3=Jake Owen - The One That Got Away
TTITLE4=Johnny Reid ft. Carolyn Dawn Johnson - Baby I Know It
TTITLE5=Montgomery Gentry - So Called Life (Break My Back)
TTITLE6=Ryan Laird - Girl Crazy
TTITLE7=George Strait - Drinkin' Man
TTITLE8=Rodney Atkins - Just Wanna Rock And Roll
TTITLE9=Hey Romeo - Jump Back In
TTITLE10=Lady Antebellum - Wanted You More
TTITLE11=Randy Houser  - How Country Feels
TTITLE12=Jessie James - Military Man
TTITLE13=Jaida Dreyer - Guy's Girl
TTITLE14=Belle Starr - Jolene
TTITLE15=Michelle Wright - Another Good Day
TTITLE16=Little Big Town - Pontoon
TTITLE17=Hayley - Feeling California
TTITLE18=Greg Bates - Did It For The Girl
TTITLE19=Small Town Pitols - Colour Blind
TTITLE20=Kristen Kelly - Ex-Old Man
TTITLE21=Thomas Rhett - Something To Do With My Hands
EXTD=
EXTT0=
EXTT1=
EXTT2=
EXTT3=
EXTT4=
EXTT5=
EXTT6=
EXTT7=
EXTT8=
EXTT9=
EXTT10=
EXTT11=
EXTT12=
EXTT13=
EXTT14=
EXTT15=
EXTT16=
EXTT17=
EXTT18=
EXTT19=
EXTT20=
EXTT21=
PLAYORDER=
